<svg width="16" height="25" viewBox="0 0 16 25" fill="none" xmlns="http://www.w3.org/2000/svg">
<path fill-rule="evenodd" clip-rule="evenodd" d="M9 11.3251H10.7162C13.354 11.3251 15.5 13.5457 15.5 16.275C15.5 19.0043 13.354 21.2249 10.7162 21.2249H9.13544V23.8252C9.13544 24.474 8.62704 25 8 25C7.37296 25 6.86459 24.474 6.86459 23.8252V21.2249H1.13541C0.508362 21.2249 0 20.6989 0 20.05C0 19.4012 0.508362 18.8752 1.13541 18.8752H7V13.6747H4.78391C2.14609 13.6747 0 11.4542 0 8.72498C0 5.99561 2.14603 3.77502 4.78391 3.77502H6.86459V1.1748C6.86459 0.526001 7.37296 0 8 0C8.62704 0 9.13544 0.526001 9.13544 1.1748V3.77502H14.3646C14.9916 3.77502 15.5 4.30103 15.5 4.94983C15.5 5.59863 14.9916 6.12463 14.3646 6.12463H9V11.3251ZM9 13.6747V18.8752H10.7162C12.1019 18.8752 13.2292 17.7087 13.2292 16.275C13.2292 14.8412 12.1019 13.6747 10.7162 13.6747H9ZM7 11.3251V6.12463H4.78381C3.39816 6.12463 2.27075 7.29114 2.27075 8.72498C2.27075 10.1587 3.39807 11.3251 4.78381 11.3251H7Z" fill="white"/>
</svg>
