<svg width="25" height="25" viewBox="0 0 25 25" fill="none" xmlns="http://www.w3.org/2000/svg">
<path d="M12.5 25C19.4034 25 25 19.4034 25 12.5C25 5.59658 19.4034 0 12.5 0C5.59658 0 0 5.59658 0 12.5C0 19.4034 5.59658 25 12.5 25ZM12.5 2.08335C18.2528 2.08335 22.9167 6.74717 22.9167 12.5C22.9167 18.2528 18.2528 22.9167 12.5 22.9167C6.74717 22.9167 2.08335 18.2528 2.08335 12.5C2.08335 6.74717 6.74717 2.08335 12.5 2.08335Z" fill="#E92929"/>
<path d="M11.7635 19.4867C11.7638 19.4871 11.7642 19.4874 11.7646 19.4877C11.7885 19.5115 11.8136 19.5342 11.8398 19.5557C11.8519 19.5656 11.8646 19.5742 11.8771 19.5835C11.8918 19.5946 11.9063 19.6061 11.9217 19.6163C11.9365 19.6263 11.9519 19.6349 11.9672 19.6439C11.9811 19.6522 11.9947 19.661 12.009 19.6687C12.0245 19.677 12.0406 19.684 12.0564 19.6915C12.0714 19.6986 12.0861 19.706 12.1014 19.7124C12.1168 19.7188 12.1325 19.7239 12.1481 19.7295C12.1646 19.7354 12.1808 19.7417 12.1976 19.7468C12.2132 19.7515 12.2291 19.755 12.2449 19.7589C12.262 19.7633 12.279 19.7681 12.2964 19.7715C12.3147 19.7751 12.3332 19.7773 12.3516 19.78C12.3668 19.7821 12.3817 19.7851 12.3971 19.7866C12.4655 19.7933 12.5344 19.7933 12.6028 19.7866C12.6181 19.7851 12.6331 19.7822 12.6483 19.78C12.6667 19.7773 12.6852 19.7752 12.7035 19.7715C12.721 19.7681 12.7379 19.7633 12.755 19.7589C12.7708 19.755 12.7867 19.7515 12.8023 19.7468C12.8191 19.7417 12.8354 19.7354 12.8518 19.7295C12.8674 19.7239 12.8831 19.7188 12.8985 19.7124C12.9138 19.7061 12.9285 19.6986 12.9435 19.6915C12.9594 19.684 12.9754 19.677 12.9909 19.6687C13.0052 19.661 13.0188 19.6522 13.0327 19.6439C13.048 19.6349 13.0634 19.6262 13.0782 19.6163C13.0936 19.606 13.1081 19.5946 13.1228 19.5835C13.1353 19.5742 13.148 19.5656 13.1601 19.5557C13.1863 19.5342 13.2114 19.5116 13.2353 19.4877C13.2357 19.4874 13.2361 19.487 13.2365 19.4867L17.4031 15.32C17.8099 14.9132 17.8099 14.2537 17.4031 13.8469C16.9963 13.4401 16.3367 13.4401 15.93 13.8469L13.5415 16.2353L13.5415 6.25009C13.5415 5.6748 13.0752 5.20844 12.4999 5.20844C11.9246 5.20844 11.4582 5.6748 11.4582 6.25009L11.4582 16.2353L9.0698 13.8469C8.66301 13.4401 8.00344 13.4401 7.59666 13.8469C7.18987 14.2537 7.18987 14.9132 7.59666 15.32L11.7635 19.4867Z" fill="#E92929"/>
</svg>
