<svg width="25" height="25" viewBox="0 0 25 25" fill="none" xmlns="http://www.w3.org/2000/svg">
<path d="M12.5 0C5.59658 0 0 5.59658 0 12.5C0 19.4034 5.59658 25 12.5 25C19.4034 25 25 19.4034 25 12.5C25 5.59658 19.4034 0 12.5 0ZM12.5 22.9167C6.74717 22.9167 2.08335 18.2528 2.08335 12.5C2.08335 6.74717 6.74717 2.08335 12.5 2.08335C18.2528 2.08335 22.9167 6.74717 22.9167 12.5C22.9167 18.2528 18.2528 22.9167 12.5 22.9167Z" fill="#49AA26"/>
<path d="M13.2365 5.51333C13.2362 5.51294 13.2358 5.51265 13.2354 5.5123C13.2115 5.48848 13.1864 5.46582 13.1602 5.44434C13.1481 5.43437 13.1354 5.42578 13.1229 5.41646C13.1082 5.40542 13.0937 5.39395 13.0783 5.38369C13.0635 5.37373 13.0481 5.36514 13.0328 5.35605C13.0189 5.34775 13.0053 5.33901 12.991 5.33135C12.9755 5.32305 12.9594 5.31597 12.9436 5.3085C12.9286 5.30142 12.9139 5.29399 12.8986 5.2876C12.8832 5.28125 12.8675 5.27607 12.8519 5.27051C12.8354 5.2646 12.8192 5.2583 12.8024 5.25322C12.7868 5.24849 12.7709 5.24502 12.7551 5.24106C12.738 5.23672 12.721 5.23193 12.7036 5.22847C12.6853 5.22485 12.6668 5.2227 12.6484 5.22002C12.6332 5.21787 12.6183 5.21494 12.6029 5.21343C12.5345 5.20669 12.4656 5.20669 12.3972 5.21343C12.3819 5.21494 12.3669 5.21782 12.3517 5.22002C12.3333 5.22266 12.3148 5.2248 12.2965 5.22847C12.279 5.23193 12.2621 5.23672 12.245 5.24106C12.2292 5.24502 12.2133 5.24849 12.1977 5.25322C12.1809 5.2583 12.1646 5.2646 12.1482 5.27051C12.1326 5.27612 12.1169 5.28125 12.1015 5.2876C12.0862 5.29395 12.0715 5.30142 12.0565 5.3085C12.0406 5.31597 12.0246 5.323 12.0091 5.33135C11.9948 5.33901 11.9812 5.34775 11.9673 5.35605C11.952 5.36514 11.9366 5.37378 11.9218 5.38369C11.9064 5.39399 11.8919 5.40542 11.8772 5.41646C11.8647 5.42578 11.852 5.43442 11.8399 5.44434C11.8137 5.46577 11.7886 5.48843 11.7647 5.5123C11.7643 5.51265 11.7639 5.51299 11.7635 5.51333L7.5969 9.67998C7.19011 10.0868 7.19011 10.7463 7.5969 11.1531C8.00369 11.5599 8.66326 11.5599 9.07004 11.1531L11.4585 8.7647V18.7499C11.4585 19.3252 11.9248 19.7916 12.5001 19.7916C13.0754 19.7916 13.5418 19.3252 13.5418 18.7499V8.7647L15.9302 11.1531C16.337 11.5599 16.9966 11.5599 17.4033 11.1531C17.8101 10.7463 17.8101 10.0868 17.4033 9.67998L13.2365 5.51333Z" fill="#49AA26"/>
</svg>
